<svg xmlns="http://www.w3.org/2000/svg" xmlns:xlink="http://www.w3.org/1999/xlink" width="1000" zoomAndPan="magnify" viewBox="0 0 750 225" height="300" preserveAspectRatio="xMidYMid meet" version="1.0"><defs><g/><clipPath id="498e02bae2"><path d="M 440.679688 103.199219 L 459.28125 103.199219 L 459.28125 121.800781 L 440.679688 121.800781 Z M 440.679688 103.199219 " clip-rule="nonzero"/></clipPath><clipPath id="5f1dbe42e5"><path d="M 449.980469 103.199219 C 444.84375 103.199219 440.679688 107.363281 440.679688 112.5 C 440.679688 117.636719 444.84375 121.800781 449.980469 121.800781 C 455.117188 121.800781 459.28125 117.636719 459.28125 112.5 C 459.28125 107.363281 455.117188 103.199219 449.980469 103.199219 Z M 449.980469 103.199219 " clip-rule="nonzero"/></clipPath><clipPath id="a324216043"><path d="M 401.433594 38.03125 L 498.667969 38.03125 L 498.667969 83.621094 L 401.433594 83.621094 Z M 401.433594 38.03125 " clip-rule="nonzero"/></clipPath><clipPath id="d3f5cbbc88"><path d="M 405.183594 38.03125 L 494.777344 38.03125 C 495.769531 38.03125 496.726562 38.429688 497.429688 39.132812 C 498.132812 39.835938 498.527344 40.789062 498.527344 41.78125 L 498.527344 79.871094 C 498.527344 80.867188 498.132812 81.820312 497.429688 82.523438 C 496.726562 83.226562 495.769531 83.621094 494.777344 83.621094 L 405.183594 83.621094 C 404.191406 83.621094 403.234375 83.226562 402.53125 82.523438 C 401.828125 81.820312 401.433594 80.867188 401.433594 79.871094 L 401.433594 41.78125 C 401.433594 40.789062 401.828125 39.835938 402.53125 39.132812 C 403.234375 38.429688 404.191406 38.03125 405.183594 38.03125 Z M 405.183594 38.03125 " clip-rule="nonzero"/></clipPath><clipPath id="5c24b87117"><path d="M 437.820312 79.6875 L 462.164062 79.6875 L 462.164062 94.386719 L 437.820312 94.386719 Z M 437.820312 79.6875 " clip-rule="nonzero"/></clipPath><clipPath id="6c237e4622"><path d="M 449.980469 94.386719 L 462.140625 79.6875 L 437.820312 79.6875 Z M 449.980469 94.386719 " clip-rule="nonzero"/></clipPath></defs><path stroke-linecap="butt" transform="matrix(0.75, 0, 0, 0.75, -0.00000000000017053, 110.625005)" fill="none" stroke-linejoin="miter" d="M 0.000000000000227374 2.499993 L 1000.000042 2.499993 " stroke="#d9d9d9" stroke-width="5" stroke-opacity="1" stroke-miterlimit="4"/><path stroke-linecap="butt" transform="matrix(0.749993, -0.00312511, 0.00312511, 0.749993, -0.0156255, 110.62502)" fill="none" stroke-linejoin="miter" d="M -0.0000000956158 5.000017 L 599.979205 5.000017 " stroke="#e96949" stroke-width="10" stroke-opacity="1" stroke-miterlimit="4"/><g clip-path="url(#498e02bae2)"><g clip-path="url(#5f1dbe42e5)"><path fill="#e96949" d="M 440.679688 103.199219 L 459.28125 103.199219 L 459.28125 121.800781 L 440.679688 121.800781 Z M 440.679688 103.199219 " fill-opacity="1" fill-rule="nonzero"/></g></g><g clip-path="url(#a324216043)"><g clip-path="url(#d3f5cbbc88)"><path fill="#e96949" d="M 401.433594 38.03125 L 498.492188 38.03125 L 498.492188 83.621094 L 401.433594 83.621094 Z M 401.433594 38.03125 " fill-opacity="1" fill-rule="nonzero"/></g></g><g fill="#ffffff" fill-opacity="1"><g transform="translate(430.149126, 67.869085)"><g><path d="M 5.652344 -8.160156 C 6.597656 -8.160156 7.414062 -7.808594 8.09375 -7.128906 C 8.753906 -6.421875 9.105469 -5.609375 9.105469 -4.6875 C 9.105469 -3.761719 8.753906 -2.949219 8.09375 -2.289062 C 7.433594 -1.628906 6.621094 -1.296875 5.652344 -1.296875 C 4.707031 -1.296875 3.871094 -1.628906 3.191406 -2.308594 C 2.484375 -2.992188 2.15625 -3.785156 2.15625 -4.75 C 2.15625 -5.675781 2.484375 -6.488281 3.191406 -7.148438 C 3.496094 -7.457031 3.871094 -7.699219 4.3125 -7.875 C 4.730469 -8.050781 5.167969 -8.160156 5.652344 -8.160156 Z M 10.667969 -4.796875 C 10.667969 -6.226562 10.140625 -7.414062 9.128906 -8.359375 C 8.160156 -9.21875 6.953125 -9.679688 5.457031 -9.746094 L 5.015625 -9.460938 L 9.589844 -14.957031 L 7.566406 -14.957031 L 1.714844 -7.898438 C 0.96875 -6.996094 0.59375 -5.941406 0.59375 -4.75 C 0.59375 -3.34375 1.078125 -2.179688 2.066406 -1.210938 C 3.058594 -0.242188 4.246094 0.242188 5.632812 0.242188 C 7.039062 0.242188 8.226562 -0.242188 9.195312 -1.210938 C 9.636719 -1.648438 10.007812 -2.179688 10.273438 -2.792969 C 10.535156 -3.386719 10.667969 -4.046875 10.667969 -4.796875 Z M 10.667969 -4.796875 "/></g></g></g><g fill="#ffffff" fill-opacity="1"><g transform="translate(441.406171, 67.869085)"><g><path d="M 7.347656 -13.222656 C 8.050781 -12.78125 8.558594 -12.097656 8.910156 -11.175781 C 9.328125 -9.988281 9.546875 -8.753906 9.546875 -7.433594 C 9.546875 -7.128906 9.523438 -6.753906 9.480469 -6.335938 C 9.304688 -4.707031 8.886719 -3.433594 8.207031 -2.53125 C 7.632812 -1.738281 6.953125 -1.363281 6.136719 -1.363281 C 5.214844 -1.363281 4.464844 -1.738281 3.894531 -2.507812 C 3.628906 -2.859375 3.433594 -3.234375 3.253906 -3.671875 C 3.078125 -4.113281 2.96875 -4.554688 2.882812 -5.015625 C 2.792969 -5.457031 2.726562 -5.894531 2.683594 -6.335938 C 2.640625 -6.753906 2.640625 -7.238281 2.640625 -7.789062 C 2.640625 -8.335938 2.707031 -9.042969 2.882812 -9.855469 C 2.96875 -10.296875 3.078125 -10.757812 3.253906 -11.195312 C 3.410156 -11.636719 3.609375 -12.03125 3.871094 -12.386719 C 4.136719 -12.738281 4.445312 -13 4.796875 -13.222656 C 5.148438 -13.441406 5.585938 -13.550781 6.070312 -13.550781 C 6.554688 -13.550781 6.996094 -13.441406 7.347656 -13.222656 Z M 6.160156 0.199219 C 7.917969 0.199219 9.238281 -0.660156 10.140625 -2.398438 C 10.84375 -3.785156 11.21875 -5.476562 11.21875 -7.5 C 11.21875 -9.503906 10.84375 -11.195312 10.140625 -12.582031 C 9.238281 -14.320312 7.917969 -15.199219 6.160156 -15.199219 C 4.378906 -15.199219 3.058594 -14.320312 2.15625 -12.582031 C 1.453125 -11.195312 1.101562 -9.503906 1.101562 -7.5 C 1.101562 -5.476562 1.453125 -3.785156 2.15625 -2.398438 C 3.058594 -0.660156 4.378906 0.199219 6.160156 0.199219 Z M 6.160156 0.199219 "/></g></g></g><g fill="#ffffff" fill-opacity="1"><g transform="translate(453.718565, 67.869085)"><g><path d="M 12.253906 -4.882812 C 12.804688 -4.882812 13.199219 -4.640625 13.441406 -4.203125 C 13.550781 -4.003906 13.640625 -3.785156 13.683594 -3.5625 C 13.726562 -3.320312 13.75 -3.015625 13.75 -2.660156 C 13.75 -2.289062 13.640625 -1.914062 13.417969 -1.5625 C 13.308594 -1.363281 13.15625 -1.210938 12.957031 -1.078125 C 12.757812 -0.945312 12.515625 -0.902344 12.230469 -0.902344 C 11.945312 -0.902344 11.703125 -0.945312 11.503906 -1.078125 C 11 -1.386719 10.757812 -2 10.757812 -2.882812 C 10.757812 -3.433594 10.84375 -3.871094 11.042969 -4.222656 C 11.308594 -4.664062 11.703125 -4.882812 12.253906 -4.882812 Z M 4.574219 -13.835938 C 4.75 -13.703125 4.90625 -13.550781 5.015625 -13.375 C 5.125 -13.175781 5.214844 -12.957031 5.257812 -12.738281 C 5.300781 -12.496094 5.324219 -12.1875 5.324219 -11.789062 C 5.324219 -11.394531 5.214844 -11.042969 5.015625 -10.714844 C 4.730469 -10.273438 4.332031 -10.054688 3.828125 -10.054688 C 3.277344 -10.054688 2.882812 -10.273438 2.617188 -10.714844 C 2.507812 -10.890625 2.441406 -11.109375 2.398438 -11.351562 C 2.355469 -11.570312 2.332031 -11.878906 2.332031 -12.273438 C 2.332031 -12.648438 2.417969 -13.023438 2.617188 -13.375 C 2.726562 -13.550781 2.882812 -13.703125 3.078125 -13.835938 C 3.277344 -13.96875 3.519531 -14.035156 3.828125 -14.035156 C 4.136719 -14.035156 4.378906 -13.96875 4.574219 -13.835938 Z M 12.253906 0.21875 C 13.199219 0.21875 13.945312 -0.132812 14.476562 -0.859375 C 14.914062 -1.453125 15.132812 -2.132812 15.132812 -2.882812 C 15.132812 -3.5625 14.914062 -4.222656 14.519531 -4.839844 C 13.96875 -5.609375 13.222656 -6.003906 12.253906 -6.003906 C 11.242188 -6.003906 10.492188 -5.609375 9.964844 -4.839844 C 9.546875 -4.222656 9.347656 -3.5625 9.347656 -2.882812 C 9.347656 -2.113281 9.570312 -1.453125 10.007812 -0.859375 C 10.535156 -0.132812 11.285156 0.21875 12.253906 0.21875 Z M 5.917969 0 L 11.96875 -14.957031 L 10.382812 -14.957031 L 4.378906 0 Z M 3.828125 -8.929688 C 4.773438 -8.929688 5.523438 -9.28125 6.070312 -10.007812 C 6.511719 -10.601562 6.730469 -11.261719 6.730469 -12.03125 C 6.730469 -12.714844 6.511719 -13.375 6.117188 -13.992188 C 5.566406 -14.761719 4.816406 -15.15625 3.828125 -15.15625 C 2.835938 -15.15625 2.089844 -14.761719 1.5625 -13.992188 C 1.144531 -13.375 0.945312 -12.714844 0.945312 -12.03125 C 0.945312 -11.285156 1.144531 -10.601562 1.582031 -10.007812 C 2.113281 -9.28125 2.859375 -8.929688 3.828125 -8.929688 Z M 3.828125 -8.929688 "/></g></g></g><g clip-path="url(#5c24b87117)"><g clip-path="url(#6c237e4622)"><path fill="#e96949" d="M 437.820312 79.6875 L 462.164062 79.6875 L 462.164062 94.386719 L 437.820312 94.386719 Z M 437.820312 79.6875 " fill-opacity="1" fill-rule="nonzero"/></g></g></svg>