<svg xmlns="http://www.w3.org/2000/svg" xmlns:xlink="http://www.w3.org/1999/xlink" width="1000" zoomAndPan="magnify" viewBox="0 0 750 225" height="300" preserveAspectRatio="xMidYMid meet" version="1.0"><defs><g/><clipPath id="11be18d9b9"><path d="M 605.71875 103.199219 L 624.324219 103.199219 L 624.324219 121.800781 L 605.71875 121.800781 Z M 605.71875 103.199219 " clip-rule="nonzero"/></clipPath><clipPath id="ef1d77a772"><path d="M 615.019531 103.199219 C 609.882812 103.199219 605.71875 107.363281 605.71875 112.5 C 605.71875 117.636719 609.882812 121.800781 615.019531 121.800781 C 620.160156 121.800781 624.324219 117.636719 624.324219 112.5 C 624.324219 107.363281 620.160156 103.199219 615.019531 103.199219 Z M 615.019531 103.199219 " clip-rule="nonzero"/></clipPath><clipPath id="fca5621f3f"><path d="M 566.476562 38.03125 L 663.710938 38.03125 L 663.710938 83.621094 L 566.476562 83.621094 Z M 566.476562 38.03125 " clip-rule="nonzero"/></clipPath><clipPath id="0f73dc1c0f"><path d="M 570.226562 38.03125 L 659.816406 38.03125 C 660.8125 38.03125 661.765625 38.429688 662.46875 39.132812 C 663.171875 39.835938 663.566406 40.789062 663.566406 41.78125 L 663.566406 79.871094 C 663.566406 80.867188 663.171875 81.820312 662.46875 82.523438 C 661.765625 83.226562 660.8125 83.621094 659.816406 83.621094 L 570.226562 83.621094 C 569.230469 83.621094 568.277344 83.226562 567.574219 82.523438 C 566.871094 81.820312 566.476562 80.867188 566.476562 79.871094 L 566.476562 41.78125 C 566.476562 40.789062 566.871094 39.835938 567.574219 39.132812 C 568.277344 38.429688 569.230469 38.03125 570.226562 38.03125 Z M 570.226562 38.03125 " clip-rule="nonzero"/></clipPath><clipPath id="b96ffb40f6"><path d="M 602.859375 79.6875 L 627.207031 79.6875 L 627.207031 94.386719 L 602.859375 94.386719 Z M 602.859375 79.6875 " clip-rule="nonzero"/></clipPath><clipPath id="41fc4f7969"><path d="M 615.019531 94.386719 L 627.183594 79.6875 L 602.859375 79.6875 Z M 615.019531 94.386719 " clip-rule="nonzero"/></clipPath></defs><path stroke-linecap="butt" transform="matrix(0.75, 0, 0, 0.75, -0.00000000000017053, 110.625005)" fill="none" stroke-linejoin="miter" d="M 0.000000000000227374 2.499993 L 1000.000042 2.499993 " stroke="#d9d9d9" stroke-width="5" stroke-opacity="1" stroke-miterlimit="4"/><path stroke-linecap="butt" transform="matrix(0.749996, -0.0022865, 0.0022865, 0.749996, -0.0114325, 110.625034)" fill="none" stroke-linejoin="miter" d="M 0.0000000514568 4.999978 L 820.029881 4.999971 " stroke="#ebca14" stroke-width="10" stroke-opacity="1" stroke-miterlimit="4"/><g clip-path="url(#11be18d9b9)"><g clip-path="url(#ef1d77a772)"><path fill="#ebca14" d="M 605.71875 103.199219 L 624.324219 103.199219 L 624.324219 121.800781 L 605.71875 121.800781 Z M 605.71875 103.199219 " fill-opacity="1" fill-rule="nonzero"/></g></g><g clip-path="url(#fca5621f3f)"><g clip-path="url(#0f73dc1c0f)"><path fill="#ebca14" d="M 566.476562 38.03125 L 663.53125 38.03125 L 663.53125 83.621094 L 566.476562 83.621094 Z M 566.476562 38.03125 " fill-opacity="1" fill-rule="nonzero"/></g></g><g fill="#ffffff" fill-opacity="1"><g transform="translate(594.433546, 67.86907)"><g><path d="M 5.785156 -7.613281 C 6.664062 -7.613281 7.414062 -7.304688 8.027344 -6.710938 C 8.644531 -6.117188 8.953125 -5.367188 8.953125 -4.507812 C 8.953125 -3.628906 8.644531 -2.882812 8.050781 -2.265625 C 7.433594 -1.628906 6.6875 -1.320312 5.785156 -1.320312 C 4.863281 -1.320312 4.113281 -1.628906 3.519531 -2.265625 C 2.902344 -2.882812 2.617188 -3.628906 2.617188 -4.507812 C 2.617188 -5.367188 2.902344 -6.117188 3.519531 -6.710938 C 4.136719 -7.304688 4.882812 -7.613281 5.785156 -7.613281 Z M 5.785156 -13.683594 C 6.488281 -13.683594 7.105469 -13.441406 7.613281 -12.980469 C 8.117188 -12.496094 8.382812 -11.902344 8.382812 -11.195312 C 8.382812 -10.492188 8.117188 -9.898438 7.613281 -9.394531 C 7.105469 -8.886719 6.488281 -8.644531 5.785156 -8.644531 C 5.058594 -8.644531 4.445312 -8.886719 3.960938 -9.394531 C 3.433594 -9.898438 3.191406 -10.492188 3.191406 -11.195312 C 3.191406 -11.902344 3.433594 -12.496094 3.960938 -12.980469 C 4.445312 -13.441406 5.058594 -13.683594 5.785156 -13.683594 Z M 5.785156 0.21875 C 7.148438 0.21875 8.292969 -0.175781 9.238281 -0.988281 C 9.679688 -1.386719 10.03125 -1.847656 10.296875 -2.398438 C 10.558594 -2.949219 10.691406 -3.585938 10.691406 -4.289062 C 10.691406 -4.992188 10.472656 -5.699219 10.03125 -6.402344 C 9.589844 -7.105469 8.976562 -7.675781 8.183594 -8.117188 C 9.371094 -9.085938 9.964844 -10.164062 9.964844 -11.308594 C 9.964844 -12.449219 9.546875 -13.398438 8.734375 -14.144531 C 7.964844 -14.847656 6.972656 -15.199219 5.785156 -15.199219 C 4.574219 -15.199219 3.585938 -14.847656 2.816406 -14.144531 C 2 -13.398438 1.605469 -12.449219 1.605469 -11.328125 C 1.605469 -10.164062 2.199219 -9.085938 3.386719 -8.117188 C 2.574219 -7.675781 1.957031 -7.105469 1.519531 -6.402344 C 1.078125 -5.699219 0.878906 -4.992188 0.878906 -4.269531 C 0.878906 -2.902344 1.34375 -1.824219 2.308594 -0.988281 C 3.253906 -0.175781 4.398438 0.21875 5.785156 0.21875 Z M 5.785156 0.21875 "/></g></g></g><g fill="#ffffff" fill-opacity="1"><g transform="translate(605.998398, 67.86907)"><g><path d="M 1.386719 0 L 11.921875 0 L 11.921875 -1.539062 L 5.105469 -1.539062 L 10.316406 -6.710938 C 11.285156 -7.675781 11.769531 -8.84375 11.769531 -10.207031 C 11.769531 -11.59375 11.261719 -12.757812 10.273438 -13.726562 C 9.261719 -14.695312 8.074219 -15.199219 6.710938 -15.199219 C 5.257812 -15.199219 4.046875 -14.671875 3.035156 -13.660156 C 2.046875 -12.648438 1.582031 -11.417969 1.648438 -9.988281 L 3.210938 -9.988281 C 3.125 -10.910156 3.433594 -11.746094 4.136719 -12.515625 C 4.816406 -13.242188 5.652344 -13.617188 6.644531 -13.617188 C 7.589844 -13.617188 8.402344 -13.285156 9.085938 -12.625 C 9.765625 -11.945312 10.117188 -11.152344 10.117188 -10.230469 C 10.117188 -9.261719 9.789062 -8.46875 9.128906 -7.808594 Z M 1.386719 0 "/></g></g></g><g fill="#ffffff" fill-opacity="1"><g transform="translate(619.520043, 67.86907)"><g><path d="M 12.253906 -4.882812 C 12.804688 -4.882812 13.199219 -4.640625 13.441406 -4.203125 C 13.550781 -4.003906 13.640625 -3.785156 13.683594 -3.5625 C 13.726562 -3.320312 13.75 -3.015625 13.75 -2.660156 C 13.75 -2.289062 13.640625 -1.914062 13.417969 -1.5625 C 13.308594 -1.363281 13.15625 -1.210938 12.957031 -1.078125 C 12.757812 -0.945312 12.515625 -0.902344 12.230469 -0.902344 C 11.945312 -0.902344 11.703125 -0.945312 11.503906 -1.078125 C 11 -1.386719 10.757812 -2 10.757812 -2.882812 C 10.757812 -3.433594 10.84375 -3.871094 11.042969 -4.222656 C 11.308594 -4.664062 11.703125 -4.882812 12.253906 -4.882812 Z M 4.574219 -13.835938 C 4.75 -13.703125 4.90625 -13.550781 5.015625 -13.375 C 5.125 -13.175781 5.214844 -12.957031 5.257812 -12.738281 C 5.300781 -12.496094 5.324219 -12.1875 5.324219 -11.789062 C 5.324219 -11.394531 5.214844 -11.042969 5.015625 -10.714844 C 4.730469 -10.273438 4.332031 -10.054688 3.828125 -10.054688 C 3.277344 -10.054688 2.882812 -10.273438 2.617188 -10.714844 C 2.507812 -10.890625 2.441406 -11.109375 2.398438 -11.351562 C 2.355469 -11.570312 2.332031 -11.878906 2.332031 -12.273438 C 2.332031 -12.648438 2.417969 -13.023438 2.617188 -13.375 C 2.726562 -13.550781 2.882812 -13.703125 3.078125 -13.835938 C 3.277344 -13.96875 3.519531 -14.035156 3.828125 -14.035156 C 4.136719 -14.035156 4.378906 -13.96875 4.574219 -13.835938 Z M 12.253906 0.21875 C 13.199219 0.21875 13.945312 -0.132812 14.476562 -0.859375 C 14.914062 -1.453125 15.132812 -2.132812 15.132812 -2.882812 C 15.132812 -3.5625 14.914062 -4.222656 14.519531 -4.839844 C 13.96875 -5.609375 13.222656 -6.003906 12.253906 -6.003906 C 11.242188 -6.003906 10.492188 -5.609375 9.964844 -4.839844 C 9.546875 -4.222656 9.347656 -3.5625 9.347656 -2.882812 C 9.347656 -2.113281 9.570312 -1.453125 10.007812 -0.859375 C 10.535156 -0.132812 11.285156 0.21875 12.253906 0.21875 Z M 5.917969 0 L 11.96875 -14.957031 L 10.382812 -14.957031 L 4.378906 0 Z M 3.828125 -8.929688 C 4.773438 -8.929688 5.523438 -9.28125 6.070312 -10.007812 C 6.511719 -10.601562 6.730469 -11.261719 6.730469 -12.03125 C 6.730469 -12.714844 6.511719 -13.375 6.117188 -13.992188 C 5.566406 -14.761719 4.816406 -15.15625 3.828125 -15.15625 C 2.835938 -15.15625 2.089844 -14.761719 1.5625 -13.992188 C 1.144531 -13.375 0.945312 -12.714844 0.945312 -12.03125 C 0.945312 -11.285156 1.144531 -10.601562 1.582031 -10.007812 C 2.113281 -9.28125 2.859375 -8.929688 3.828125 -8.929688 Z M 3.828125 -8.929688 "/></g></g></g><g clip-path="url(#b96ffb40f6)"><g clip-path="url(#41fc4f7969)"><path fill="#ebca14" d="M 602.859375 79.6875 L 627.207031 79.6875 L 627.207031 94.386719 L 602.859375 94.386719 Z M 602.859375 79.6875 " fill-opacity="1" fill-rule="nonzero"/></g></g></svg>